<?xml version="1.0" standalone="no"?>
<!DOCTYPE svg PUBLIC "-//W3C//DTD SVG 20010904//EN"
 "http://www.w3.org/TR/2001/REC-SVG-20010904/DTD/svg10.dtd">
<svg version="1.0" xmlns="http://www.w3.org/2000/svg"
 width="300.000000pt" height="300.000000pt" viewBox="0 0 300.000000 300.000000"
 preserveAspectRatio="xMidYMid meet">
<metadata>
Created by potrace 1.14, written by Peter Selinger 2001-2017
</metadata>
<g transform="translate(0.000000,300.000000) scale(0.100000,-0.100000)"
fill="#000000" stroke="none">
<path d="M40 2770 l0 -180 1455 0 1455 0 0 180 0 180 -1455 0 -1455 0 0 -180z"/>
<path d="M1000 2223 c-57 -9 -91 -26 -124 -63 -62 -69 -59 -179 8 -246 68 -68
223 -73 295 -10 20 18 51 73 51 91 0 3 -26 5 -59 5 -52 0 -61 -3 -75 -25 -21
-32 -84 -35 -110 -6 -26 28 -31 91 -12 129 27 51 99 53 126 2 9 -17 21 -20 71
-20 58 0 60 1 53 23 -15 49 -36 78 -72 95 -39 20 -110 31 -152 25z"/>
<path d="M477 2053 c-37 -93 -67 -171 -67 -175 0 -5 27 -8 61 -8 52 0 62 3 66
20 5 17 14 20 70 20 56 0 66 -3 70 -20 5 -17 14 -20 69 -20 35 0 64 3 64 8 -1
4 -31 81 -68 172 l-67 165 -65 3 -65 2 -68 -167z m156 -15 l16 -48 -40 0 c-29
0 -39 4 -35 13 3 6 11 31 18 54 14 49 19 46 41 -19z"/>
<path d="M1250 2170 l0 -50 60 0 60 0 0 -125 0 -125 60 0 60 0 0 125 0 125 60
0 60 0 0 50 0 50 -180 0 -180 0 0 -50z"/>
<path d="M1650 2045 l0 -175 65 0 65 0 0 175 0 175 -65 0 -65 0 0 -175z"/>
<path d="M1830 2212 c0 -4 29 -82 64 -172 l63 -165 65 -3 66 -3 60 153 c86
222 85 200 11 196 l-62 -3 -37 -109 -36 -109 -34 112 -33 111 -64 0 c-34 0
-63 -4 -63 -8z"/>
<path d="M2260 2045 l0 -175 166 0 165 0 -3 43 -3 42 -97 3 c-97 3 -98 3 -98
27 0 24 2 25 80 25 l80 0 0 40 0 40 -80 0 c-73 0 -80 2 -80 20 0 19 7 20 95
20 l95 0 0 45 0 45 -160 0 -160 0 0 -175z"/>
<path d="M40 770 l0 -730 1455 0 1455 0 0 730 0 730 -1455 0 -1455 0 0 -730z
m1623 322 c127 -63 181 -160 180 -327 0 -68 -5 -114 -16 -143 -57 -149 -199
-232 -379 -219 -135 9 -241 76 -295 185 -26 52 -28 66 -28 172 0 139 17 191
84 263 78 84 144 108 287 104 90 -2 107 -6 167 -35z m-737 -11 c53 -30 84 -84
84 -146 0 -52 -10 -76 -49 -119 -21 -23 -23 -30 -11 -34 30 -11 69 -60 80
-101 22 -83 -9 -171 -78 -218 -52 -35 -119 -43 -342 -43 l-210 0 0 346 0 345
243 -3 c233 -3 243 -4 283 -27z m1259 -57 l47 -86 48 84 47 83 127 3 127 3
-56 -81 c-30 -44 -80 -116 -110 -160 -30 -44 -55 -84 -55 -89 0 -6 52 -89 115
-186 l115 -175 -129 0 -128 0 -49 90 c-27 49 -51 90 -54 90 -3 0 -29 -41 -58
-90 l-52 -90 -130 0 -130 0 121 181 121 180 -106 159 c-58 88 -106 162 -106
165 0 3 56 5 124 5 l124 0 47 -86z"/>
<path d="M1420 942 c-52 -25 -71 -73 -71 -176 0 -139 36 -186 142 -186 42 0
55 5 79 28 16 16 34 49 40 73 16 56 8 164 -14 211 -30 63 -107 85 -176 50z"/>
<path d="M620 901 l0 -61 71 0 c88 0 109 10 109 54 0 47 -19 58 -105 64 l-75
5 0 -62z"/>
<path d="M620 645 l0 -65 73 0 c93 0 121 14 125 62 5 53 -22 68 -120 68 l-78
0 0 -65z"/>
</g>
</svg>
